<svg width="163" height="44" viewBox="0 0 163 44" fill="none" xmlns="http://www.w3.org/2000/svg">
<path d="M12.7814 22.0157H14.4677C20.2356 22.0157 23.8497 23.9261 23.8497 30.4526C23.8497 35.5527 21.8724 39.2004 15.82 39.2004C14.8036 39.2351 13.7863 39.1622 12.7848 38.9829L12.7814 22.0157ZM12.7814 5.82435C13.9175 5.66177 15.0639 5.58561 16.2112 5.59651C20.339 5.59651 22.666 7.2848 22.666 11.7994C22.666 17.4407 19.4948 19.0242 14.4688 19.0242H12.7826L12.7814 5.82435ZM4.39763 5.98611C4.74166 7.53592 4.87293 9.12644 4.7877 10.7126V36.7421C4.7877 38.5386 4.56962 39.524 3.6557 40.0241L1.85708 41.0938V42.4039C3.94685 42.3583 6.26819 42.2489 8.64687 42.2489C11.3504 42.2489 14.0765 42.3628 16.6103 42.4039C25.8282 42.667 32.3223 37.1339 32.3223 29.9969C32.3223 23.2608 28.1979 20.6168 20.9685 20.332V20.226C26.1632 18.4318 31.0206 16.4667 31.0206 10.5429C31.0206 3.96746 25.4898 2.6141 20.2839 2.67562C15.9257 2.73486 3.73214 2.73486 0 2.66992V4.83439C0 4.83439 3.85017 4.37871 4.39763 5.98498V5.98611ZM42.072 26.9541C39.5675 27.3684 37.1673 28.2755 35.0068 29.6244C34.1227 30.3675 33.4253 31.3126 32.972 32.382C32.5186 33.4515 32.3221 34.6147 32.3988 35.776C32.3988 39.8931 34.4886 42.9473 38.694 42.8766C40.3961 42.9166 42.0764 42.4814 43.5509 41.6187C45.0254 40.7559 46.2373 39.4988 47.0542 37.9849V42.0667C49.0282 42.0029 50.6177 41.8901 52.1836 41.8901C53.8215 41.8901 55.3222 42.004 57.1298 42.0667V39.8908L56.5677 39.737C54.732 39.573 54.0103 38.796 53.9553 37.339C53.9047 34.9467 53.7675 32.5373 53.7675 30.1427C53.7675 27.7481 53.9047 25.3649 53.9553 22.9738C54.1059 16.7709 49.5868 14.5608 44.608 14.5073C41.0854 14.6408 37.7154 15.9989 35.0641 18.3532V22.3643L36.7503 22.7687L37.6586 20.5097C38.0813 19.0914 40.198 19.0606 41.1659 19.0606C45.4152 19.0606 47.053 21.838 47.053 25.9106L42.072 26.9541ZM47.0542 35.2224C45.8834 36.6784 44.196 37.6113 42.3541 37.8209C36.8335 37.9177 36.4704 31.0871 44.5013 29.0297L47.0542 28.3644V35.2224ZM76.7595 22.9476L77.2092 15.8755C74.987 14.8857 72.5717 14.4213 70.1462 14.5175C63.5531 14.5175 58.517 16.9588 58.517 23.5924C58.517 27.2469 60.5506 29.736 64.4997 30.7226L69.3661 31.9529C71.4558 32.4598 72.9296 33.1696 72.9296 35.7213C72.9296 38.5374 70.6105 40.105 68.0722 40.105C65.4215 40.105 61.8636 39.4556 61.3982 37.069L60.7316 33.0625H58.5226L58.5125 41.251C61.3322 42.3236 64.3185 42.8764 67.3302 42.8835C73.1409 42.8835 79.1955 39.7427 79.1955 33.001C79.1955 28.2163 76.61 26.4255 72.0224 25.39L67.3853 24.3488C65.2326 23.8726 64.2771 22.9442 64.2771 21.0895C64.2771 18.5833 66.2601 17.3302 69.5392 17.3302C71.3378 17.3302 73.9312 18.3691 74.1729 19.5767L74.7349 22.9487L76.7595 22.9476ZM126.532 28.4647L126.571 24.7224C126.571 17.9169 121.832 14.4891 115.555 14.4891C113.843 14.4891 102.463 15.3435 102.887 29.4341C103.125 37.7503 107.468 42.8641 115.715 42.8641C118.904 42.9 122.038 42.0276 124.761 40.3465L126.005 37.5714L125.317 36.6749C123.489 37.8652 121.395 38.5703 119.228 38.7254C113.346 38.7254 110.235 34.5366 110.235 28.893C110.235 28.893 126.535 28.6447 126.535 28.4624L126.532 28.4647ZM114.774 17.746C118.962 17.746 119.405 22.4087 119.405 25.8411C117.824 25.8935 111.485 25.8935 109.91 25.8411C109.91 20.3468 111.484 17.746 114.774 17.746ZM156.474 8.48892C156.473 9.14261 156.663 9.78201 157.021 10.3262C157.378 10.8704 157.887 11.2949 158.482 11.546C159.078 11.7971 159.733 11.8635 160.366 11.7368C160.999 11.6101 161.581 11.296 162.037 10.8342C162.494 10.3725 162.805 9.78382 162.931 9.14279C163.058 8.50176 162.993 7.83715 162.747 7.23309C162.5 6.62902 162.082 6.11266 161.546 5.74934C161.01 5.38603 160.379 5.1921 159.734 5.1921C158.871 5.19209 158.043 5.53922 157.432 6.1573C156.82 6.77538 156.476 7.61392 156.474 8.48892ZM157.075 8.48892C157.06 8.12504 157.118 7.76188 157.245 7.42128C157.372 7.08068 157.566 6.76965 157.815 6.5069C158.064 6.24414 158.363 6.03507 158.693 5.89225C159.024 5.74943 159.38 5.67581 159.739 5.67581C160.098 5.67581 160.454 5.74943 160.785 5.89225C161.115 6.03507 161.414 6.24414 161.663 6.5069C161.912 6.76965 162.105 7.08068 162.233 7.42128C162.36 7.76188 162.418 8.12504 162.403 8.48892C162.427 8.85823 162.375 9.22853 162.252 9.57693C162.129 9.92532 161.937 10.2444 161.687 10.5145C161.437 10.7845 161.136 10.9997 160.8 11.1469C160.465 11.2941 160.104 11.37 159.739 11.37C159.374 11.37 159.012 11.2941 158.677 11.1469C158.342 10.9997 158.04 10.7845 157.791 10.5145C157.541 10.2444 157.349 9.92532 157.225 9.57693C157.102 9.22853 157.051 8.85823 157.075 8.48892ZM158.467 10.4358H159.072V8.75777H159.707L160.727 10.4347H161.366L160.283 8.70765C160.418 8.71103 160.552 8.68572 160.677 8.63335C160.802 8.58099 160.915 8.50273 161.008 8.4036C161.101 8.30446 161.173 8.18665 161.219 8.05774C161.265 7.92882 161.283 7.79165 161.273 7.65503C161.273 6.91114 160.824 6.55002 159.932 6.55002H158.458L158.467 10.4358ZM159.072 7.02506H159.848C160.265 7.02506 160.683 7.10708 160.683 7.63795C160.683 8.26564 160.227 8.29184 159.694 8.29184H159.066L159.072 7.02506ZM99.2288 22.9407L99.6784 15.8686C97.4538 14.8811 95.0367 14.4191 92.6099 14.5175C85.9988 14.5175 80.9593 16.9588 80.9593 23.5924C80.9593 27.2469 82.9827 29.736 86.9554 30.7226L91.8196 31.9472C93.9195 32.4541 95.3831 33.1639 95.3831 35.7157C95.3831 38.5317 93.064 40.0993 90.5235 40.0993C87.8593 40.0993 84.3295 39.4499 83.8438 37.0633L83.193 33.0568H80.993L80.9559 41.2453C83.7824 42.314 86.7738 42.8652 89.7905 42.8732C95.5944 42.8732 101.657 39.7324 101.657 32.9907C101.657 28.2061 99.0455 26.4153 94.4748 25.3797L89.8445 24.3385C87.6839 23.8623 86.7228 22.9339 86.7228 21.0793C86.7228 18.5731 88.6979 17.32 91.9781 17.32C93.8026 17.32 96.4027 18.3589 96.6275 19.5664L97.1896 22.9385L99.2288 22.9407ZM131.166 35.5858C131.166 40.8101 133.267 42.9769 138.409 42.9769C139.026 43.0415 139.649 42.9823 140.243 42.8027C140.837 42.623 141.39 42.3265 141.871 41.93L144.626 38.5124L144.176 37.3732C143.394 37.8693 142.489 38.1311 141.566 38.1285C139.036 38.1285 138.059 37.3208 138.059 34.3771V20.6213L144.063 20.6054L144.145 16.9281H138.059V13.7383C138.059 11.0658 137.919 6.05447 137.985 5.84485L137.198 5.25361C135.496 6.06586 131.214 8.18932 131.214 8.17792C131.214 8.14716 131.297 16.9748 131.297 16.9748L127.558 19.4958V20.7831L131.17 20.6191L131.166 35.5858ZM145.687 35.5858C145.687 40.8101 147.76 42.9769 152.927 42.9769C153.54 43.0421 154.16 42.9832 154.751 42.8035C155.342 42.6237 155.891 42.3268 156.368 41.93L159.135 38.5124L158.699 37.3732C157.918 37.8629 157.018 38.1243 156.099 38.1285C153.529 38.1285 152.578 37.3208 152.578 34.3771V20.6213L158.587 20.6054L158.679 16.9281H152.578V13.7383C152.578 11.0658 152.43 6.05447 152.497 5.84485L151.693 5.25361C150.007 6.06586 145.721 8.18932 145.721 8.17792C145.721 8.14716 145.801 16.9315 145.801 16.9315H142.057V20.6248H145.688L145.687 35.5858Z" fill="#333333"/>
</svg>
