<?xml version="1.0" encoding="utf-8"?>
<!-- Generator: Adobe Illustrator 24.2.0, SVG Export Plug-In . SVG Version: 6.00 Build 0)  -->
<svg version="1.1" id="Layer_1" xmlns="http://www.w3.org/2000/svg" xmlns:xlink="http://www.w3.org/1999/xlink" x="0px" y="0px"
	 viewBox="0 0 144 144" style="enable-background:new 0 0 144 144;" xml:space="preserve">
<style type="text/css">
	.st0{fill:#2A8738;}
	.st1{fill:#FFFFFF;}
	.st2{fill:#81C341;}
</style>
<g>
	<path class="st0" d="M130.25,8.61H14.13c-1.49,0-2.69,1.2-2.69,2.69v116.12c0,1.49,1.2,2.69,2.69,2.69h116.12
		c1.49,0,2.69-1.2,2.69-2.69V11.3C132.94,9.81,131.74,8.61,130.25,8.61z"/>
	<g>
		<path class="st1" d="M64.42,36.37h-2.4c-0.15,0-0.19,0.07-0.19,0.22v9.48c0,0.12-0.07,0.17-0.17,0.17h-1.73
			c-0.12,0-0.17-0.05-0.17-0.17v-9.48c0-0.14-0.05-0.22-0.22-0.22h-2.38c-0.12,0-0.19-0.05-0.19-0.17v-1.41
			c0-0.12,0.07-0.17,0.19-0.17h7.24c0.1,0,0.17,0.05,0.17,0.17v1.41C64.58,36.33,64.54,36.37,64.42,36.37"/>
		<path class="st1" d="M75.43,46.23h-1.7c-0.1,0-0.17-0.05-0.17-0.17v-4.65c0-0.12-0.07-0.19-0.22-0.19h-3.96
			c-0.14,0-0.19,0.07-0.19,0.19v4.65c0,0.12-0.07,0.17-0.19,0.17h-1.73c-0.09,0-0.17-0.05-0.17-0.17V34.79
			c0-0.12,0.07-0.17,0.17-0.17H69c0.1,0,0.19,0.05,0.19,0.17v4.46c0,0.12,0.05,0.19,0.19,0.19h3.96c0.15,0,0.22-0.07,0.22-0.19
			v-4.46c0-0.12,0.07-0.17,0.17-0.17h1.7c0.14,0,0.19,0.05,0.19,0.17v11.27C75.62,46.19,75.57,46.23,75.43,46.23"/>
		<path class="st1" d="M86.87,46.23h-7c-0.1,0-0.17-0.05-0.17-0.17V34.79c0-0.12,0.07-0.17,0.17-0.17h7c0.1,0,0.19,0.05,0.19,0.17
			v1.42c0,0.12-0.07,0.17-0.19,0.17h-4.89c-0.14,0-0.19,0.07-0.19,0.22v2.66c0,0.12,0.05,0.19,0.19,0.19h4.05
			c0.1,0,0.19,0.05,0.19,0.17v1.44c0,0.12-0.1,0.17-0.19,0.17h-4.05c-0.14,0-0.19,0.07-0.19,0.19v2.85c0,0.12,0.05,0.19,0.19,0.19
			h4.89c0.1,0,0.19,0.05,0.19,0.19v1.41C87.06,46.19,86.99,46.23,86.87,46.23"/>
	</g>
	<g>
		<path class="st1" d="M49.01,96.68h-1.63c-0.12,0-0.19-0.05-0.19-0.17v-3.47c0-1.58,0.14-3.63,0.17-3.85l-0.07-0.02
			c-0.02,0.07-0.29,1-0.48,1.46l-1.89,4.33c-0.02,0.12-0.12,0.14-0.22,0.14h-1.03c-0.1,0-0.19-0.02-0.24-0.14l-1.87-4.35
			c-0.19-0.45-0.45-1.36-0.48-1.43l-0.07,0.02c0.02,0.22,0.17,2.22,0.17,3.83v3.49c0,0.12-0.05,0.17-0.19,0.17h-1.65
			c-0.12,0-0.17-0.05-0.17-0.17V85.27c0-0.12,0.05-0.17,0.17-0.17h1.72c0.07,0,0.12,0.02,0.17,0.1l2.7,6.39
			c0.1,0.24,0.22,0.65,0.24,0.74h0.07c0-0.1,0.17-0.5,0.24-0.74l2.66-6.39c0.05-0.07,0.09-0.1,0.19-0.1H49
			c0.12,0,0.19,0.05,0.19,0.17v11.24C49.2,96.63,49.12,96.68,49.01,96.68"/>
		<path class="st1" d="M60.7,96.67h-1.84c-0.1,0-0.14-0.02-0.17-0.12l-0.67-2.01c-0.02-0.1-0.09-0.12-0.21-0.12h-3.04
			c-0.12,0-0.17,0.02-0.19,0.12l-0.67,2.01c-0.05,0.1-0.1,0.12-0.19,0.12h-1.79c-0.17,0-0.24-0.1-0.19-0.24l3.73-11.22
			c0.05-0.1,0.1-0.12,0.19-0.12h1.29c0.1,0,0.17,0.02,0.17,0.12l3.76,11.22C60.92,96.58,60.87,96.67,60.7,96.67 M56.61,89.43
			c-0.09-0.53-0.24-1.34-0.26-1.41h-0.07c0,0.07-0.12,0.86-0.29,1.41l-0.93,3.28c-0.02,0.1,0.02,0.19,0.19,0.19h2.11
			c0.14,0,0.22-0.1,0.17-0.19L56.61,89.43z"/>
		<path class="st1" d="M71.75,96.67h-1.84c-0.07,0-0.12-0.05-0.14-0.12l-1.89-4.76c-0.02-0.07-0.07-0.12-0.17-0.12h-2.03
			c-0.14,0-0.19,0.07-0.19,0.19v4.64c0,0.12-0.07,0.17-0.19,0.17h-1.72c-0.1,0-0.17-0.05-0.17-0.17V85.27
			c0-0.12,0.07-0.17,0.17-0.17h4.5c2.15,0,3.54,1.29,3.54,3.4v0.17c0,1.03-0.69,2.03-1.56,2.46c-0.12,0.07-0.12,0.17-0.09,0.31
			l1.98,5C71.99,96.58,71.94,96.67,71.75,96.67 M69.55,88.33c0-0.84-0.62-1.48-1.48-1.48h-2.39c-0.14,0-0.19,0.07-0.19,0.22v2.75
			c0,0.12,0.05,0.19,0.19,0.19h2.39c0.84,0,1.48-0.6,1.48-1.43V88.33z"/>
		<path class="st1" d="M83.88,96.68h-2.25c-0.07,0-0.14-0.02-0.22-0.12l-2.94-4.74c-0.09-0.14-0.21-0.14-0.31-0.02l-0.89,1.1v3.61
			c0,0.12-0.07,0.17-0.19,0.17h-1.72c-0.1,0-0.17-0.05-0.17-0.17V85.27c0-0.12,0.07-0.17,0.17-0.17h1.72c0.1,0,0.19,0.05,0.19,0.17
			v4.16c0,0.34,0.07,0.6,0.07,0.65l3.88-4.88c0.05-0.07,0.12-0.1,0.19-0.1h2.03c0.22,0,0.26,0.14,0.14,0.29l-3.73,4.4
			c-0.07,0.07-0.05,0.12,0,0.19l4.16,6.43C84.11,96.56,84.07,96.68,83.88,96.68"/>
		<path class="st1" d="M93.73,96.68h-6.98c-0.1,0-0.17-0.05-0.17-0.17V85.27c0-0.12,0.07-0.17,0.17-0.17h6.98
			c0.1,0,0.19,0.05,0.19,0.17v1.41c0,0.12-0.07,0.17-0.19,0.17h-4.88c-0.14,0-0.19,0.07-0.19,0.21v2.66c0,0.12,0.05,0.19,0.19,0.19
			h4.04c0.1,0,0.19,0.05,0.19,0.17v1.43c0,0.12-0.09,0.17-0.19,0.17h-4.04c-0.14,0-0.19,0.07-0.19,0.19v2.85
			c0,0.12,0.05,0.19,0.19,0.19h4.88c0.1,0,0.19,0.05,0.19,0.19v1.41C93.92,96.63,93.85,96.68,93.73,96.68"/>
		<path class="st1" d="M103.1,86.85h-2.39c-0.14,0-0.19,0.07-0.19,0.22v9.45c0,0.12-0.07,0.17-0.17,0.17h-1.72
			c-0.12,0-0.17-0.05-0.17-0.17v-9.45c0-0.14-0.05-0.22-0.22-0.22h-2.37c-0.12,0-0.19-0.05-0.19-0.17v-1.41
			c0-0.12,0.07-0.17,0.19-0.17h7.22c0.1,0,0.17,0.05,0.17,0.17v1.41C103.27,86.8,103.22,86.85,103.1,86.85"/>
	</g>
	<path class="st2" d="M28.77,46.36V26.13c0-0.1,0.08-0.18,0.18-0.18h86.48c0.1,0,0.18,0.08,0.18,0.18v20.23h3.67V26.13
		c0-2.13-1.73-3.86-3.86-3.86H28.95c-2.13,0-3.86,1.73-3.86,3.86v20.23H28.77z"/>
	<path class="st2" d="M115.62,84.94v27.64c0,0.1-0.08,0.18-0.18,0.18H89.86c-0.87,1.32-1.76,2.55-2.65,3.67h28.23
		c2.13,0,3.86-1.73,3.86-3.86V84.94H115.62z"/>
	<path class="st2" d="M28.77,84.94v27.64c0,0.1,0.08,0.18,0.18,0.18h25.58c0.87,1.32,1.76,2.55,2.65,3.67H28.95
		c-2.13,0-3.86-1.73-3.86-3.86V84.94H28.77z"/>
	<path class="st1" d="M74.19,105.83c-7.4-1.04-13.08,3.22-12.05,8.19c6.59-5.68,11.3-2.6,19.17-4.5c0.31-0.07,0.02,0.3-0.44,0.52
		c-4.13,1.94-7.09,0.5-12.66,1.94c-4.25,1.1-7.29,5.09-8.78,7.49c-0.55,1.01,0.27,2.39,0.4,2.61c0.22,0.36,0.38,0.26,0.44-0.1
		c0.18-1.14,0.75-3.61,2.23-4.59c5.07,5.54,18.12,5.72,26.5-11.86c0.19-0.4,0.03-1.07-0.82-0.49
		C84.74,106.67,81.59,106.87,74.19,105.83"/>
	<path class="st1" d="M33.47,53.93h-14.5c-0.2,0-0.35,0.1-0.35,0.34v22.91c0,0.24,0.15,0.34,0.35,0.34h3.58c0.25,0,0.4-0.1,0.4-0.34
		v-9.46c0-0.24,0.1-0.39,0.4-0.39h8.39c0.2,0,0.4-0.1,0.4-0.34v-2.93c0-0.24-0.2-0.34-0.4-0.34h-8.39c-0.3,0-0.4-0.15-0.4-0.39
		v-5.41c0-0.29,0.1-0.44,0.4-0.44h10.13c0.25,0,0.4-0.1,0.4-0.34v-2.88C33.87,54.03,33.67,53.93,33.47,53.93z"/>
	<path class="st1" d="M53.49,66.85c-0.05-0.29-0.05-0.49,0.2-0.63c1.79-0.88,3.23-2.93,3.23-5.02v-0.34c0-4.29-2.88-6.92-7.35-6.92
		h-9.34c-0.2,0-0.35,0.1-0.35,0.34v22.91c0,0.24,0.15,0.34,0.35,0.34h3.57c0.25,0,0.4-0.1,0.4-0.34v-9.46c0-0.24,0.1-0.39,0.4-0.39
		h4.22c0.2,0,0.3,0.1,0.35,0.24l3.92,9.7c0.05,0.15,0.15,0.24,0.3,0.24h3.82c0.4,0,0.5-0.2,0.4-0.49L53.49,66.85z M52.65,61
		c0,1.71-1.34,2.93-3.08,2.93H44.6c-0.3,0-0.4-0.15-0.4-0.39v-5.61c0-0.29,0.1-0.44,0.4-0.44h4.97c1.79,0,3.08,1.32,3.08,3.02V61z"
		/>
	<path class="st1" d="M79.22,53.93h-14.5c-0.2,0-0.35,0.1-0.35,0.34v22.91c0,0.24,0.15,0.34,0.35,0.34h14.5c0.25,0,0.4-0.1,0.4-0.34
		V74.3c0-0.29-0.2-0.39-0.4-0.39H69.09c-0.3,0-0.4-0.15-0.4-0.39v-5.8c0-0.24,0.1-0.39,0.4-0.39h8.39c0.2,0,0.4-0.1,0.4-0.34v-2.93
		c0-0.24-0.2-0.34-0.4-0.34h-8.39c-0.3,0-0.4-0.15-0.4-0.39v-5.41c0-0.29,0.1-0.44,0.4-0.44h10.13c0.25,0,0.4-0.1,0.4-0.34v-2.88
		C79.62,54.03,79.42,53.93,79.22,53.93z"/>
	<path class="st1" d="M125.37,53.93h-3.53c-0.2,0-0.35,0.1-0.35,0.34v9.07c0,0.24-0.15,0.39-0.45,0.39h-8.19
		c-0.3,0-0.4-0.15-0.4-0.39v-9.07c0-0.24-0.2-0.34-0.4-0.34h-3.58c-0.2,0-0.35,0.1-0.35,0.34v22.91c0,0.24,0.15,0.34,0.35,0.34h3.58
		c0.25,0,0.4-0.1,0.4-0.34v-9.46c0-0.24,0.1-0.39,0.4-0.39h8.19c0.3,0,0.45,0.15,0.45,0.39v9.46c0,0.24,0.15,0.34,0.35,0.34h3.53
		c0.3,0,0.4-0.1,0.4-0.34V54.27C125.76,54.03,125.66,53.93,125.37,53.93z"/>
	<path class="st1" d="M91.05,74.35c-0.29-0.09-0.57-0.2-0.83-0.34C90.48,74.16,90.76,74.27,91.05,74.35z"/>
	<path class="st1" d="M90.05,73.91c-0.05-0.03-0.09-0.06-0.14-0.09C89.96,73.85,90.01,73.88,90.05,73.91z"/>
	<path class="st1" d="M89.92,73.82c-0.03-0.02-0.07-0.05-0.1-0.08v0.01C89.85,73.78,89.88,73.8,89.92,73.82z"/>
	<path class="st1" d="M90.22,74.01c-0.06-0.03-0.11-0.06-0.17-0.1C90.11,73.95,90.16,73.98,90.22,74.01z"/>
	<path class="st1" d="M94.87,63.97c-2.43-0.93-5.22-1.9-5.22-3.85c0-0.96,0.39-1.79,1.02-2.36c0.01-0.01,0.02-0.02,0.03-0.03
		c0.07-0.06,0.14-0.12,0.22-0.17c0.01,0,0.01-0.01,0.02-0.01c0.09-0.06,0.19-0.12,0.29-0.18c0.61-0.33,1.32-0.48,2.02-0.48
		c0.91,0,1.83,0.3,2.52,0.84l0.01,0.01c0.47,0.35,0.9,0.81,1.26,1.37c0.1,0.24,0.35,0.24,0.6,0.1l2.68-1.61
		c0.3-0.15,0.3-0.44,0.15-0.63c-0.74-1.23-1.74-2.21-3.1-2.83l0,0c-1.14-0.54-2.66-0.84-4.16-0.84c-1.26,0-2.47,0.19-3.56,0.59
		c-0.04,0.01-0.07,0.03-0.11,0.04c-0.09,0.04-0.19,0.07-0.28,0.11c-2.53,1.03-4,3.26-4,6.2c0,4.19,2.83,5.61,6.36,7.02
		c2.58,1.02,5.16,1.85,5.16,4.09c0,0.92-0.43,1.78-1.11,2.37l-0.01,0.01c-0.1,0.09-0.21,0.16-0.31,0.23
		c-0.02,0.01-0.05,0.03-0.07,0.04c-0.07,0.04-0.14,0.08-0.21,0.12c-0.74,0.39-1.53,0.47-2.36,0.47c-0.56,0-1.14-0.08-1.68-0.23
		c-0.29-0.07-0.56-0.19-0.83-0.34c-0.06-0.03-0.11-0.06-0.17-0.1c-0.05-0.03-0.09-0.06-0.14-0.09c-0.03-0.02-0.07-0.05-0.11-0.07
		v-0.01c-0.49-0.36-0.93-0.85-1.31-1.43c-0.1-0.24-0.4-0.24-0.6-0.1l-2.68,1.61c-0.3,0.2-0.25,0.44-0.1,0.63
		c0.7,1.25,1.7,2.25,3.11,2.87l0,0c0.04,0.02,0.08,0.03,0.12,0.05c0.11,0.05,0.22,0.09,0.33,0.13c0.03,0.01,0.06,0.02,0.1,0.03
		c0.12,0.04,0.24,0.08,0.36,0.11c1.09,0.33,2.37,0.51,3.64,0.51c1.38,0,2.7-0.19,3.89-0.59c0.07-0.02,0.14-0.04,0.21-0.07
		c0.18-0.07,0.37-0.14,0.54-0.21l0,0c2.37-1.06,3.7-3.21,3.7-6.05C101.13,66.95,98.44,65.29,94.87,63.97z"/>
</g>
<g>
	<path class="st2" d="M122.34,116.6c1.63,0,2.73,1.11,2.73,2.73s-1.1,2.73-2.73,2.73c-1.63,0-2.73-1.11-2.73-2.73
		S120.71,116.6,122.34,116.6z M122.34,121.52c1.18,0,2.01-0.9,2.01-2.19s-0.82-2.19-2.01-2.19s-2.01,0.9-2.01,2.19
		S121.16,121.52,122.34,121.52z M122.23,119.63h-0.2v1.05h-0.57v-2.66h0.87c0.53,0,0.89,0.31,0.89,0.81c0,0.35-0.17,0.61-0.46,0.73
		l0.61,1.12h-0.63L122.23,119.63z M122.33,118.49h-0.3v0.68h0.3c0.19,0,0.31-0.14,0.31-0.34
		C122.64,118.62,122.52,118.49,122.33,118.49z"/>
</g>
</svg>
